<?xml version="1.0" encoding="UTF-8" standalone="no"?>
<!-- Uploaded to: SVG Repo, www.svgrepo.com, Generator: SVG Repo Mixer Tools -->

<svg
   fill="#000000"
   height="800"
   width="1800"
   version="1.1"
   id="Layer_1"
   viewBox="0 0 1152.0293 512.013"
   xml:space="preserve"
   sodipodi:docname="babyfeeding_room.svg"
   inkscape:version="1.2.2 (732a01da63, 2022-12-09)"
   xmlns:inkscape="http://www.inkscape.org/namespaces/inkscape"
   xmlns:sodipodi="http://sodipodi.sourceforge.net/DTD/sodipodi-0.dtd"
   xmlns="http://www.w3.org/2000/svg"
   xmlns:svg="http://www.w3.org/2000/svg"><defs
   id="defs17843" /><sodipodi:namedview
   id="namedview17841"
   pagecolor="#ffffff"
   bordercolor="#000000"
   borderopacity="0.25"
   inkscape:showpageshadow="2"
   inkscape:pageopacity="0.0"
   inkscape:pagecheckerboard="0"
   inkscape:deskcolor="#d1d1d1"
   showgrid="false"
   inkscape:zoom="0.5"
   inkscape:cx="434"
   inkscape:cy="92"
   inkscape:window-width="1920"
   inkscape:window-height="1017"
   inkscape:window-x="-8"
   inkscape:window-y="-8"
   inkscape:window-maximized="1"
   inkscape:current-layer="g16049" />
<g
   id="g17838">
	<g
   id="g17836">
		<g
   id="g17834"
   style="fill:#008000">
			<g
   inkscape:groupmode="layer"
   id="layer1"
   inkscape:label="Layer 1"
   style="fill:#008000" />
			
		<g
   transform="matrix(13.216881,0,0,17.844475,-5169.3884,-4307.6987)"
   id="g16049"
   style="clip-rule:evenodd;fill-rule:evenodd;stroke-linejoin:round;stroke-miterlimit:2"><g
     transform="matrix(1.06667,0,0,1.13333,-27.2,-34.7333)"
     id="g16037"
     style="fill:#b3b3b3"><path
       d="m 407.063,255.647 c -10e-4,-0.975 -0.84,-1.765 -1.875,-1.765 -2.495,0 -6.881,0 -9.376,0 -1.035,0 -1.874,0.79 -1.875,1.765 10e-4,2.712 10e-4,7.876 10e-4,10.588 0,0.975 0.839,1.765 1.874,1.765 2.495,0 6.881,0 9.376,0 1.035,0 1.874,-0.79 1.875,-1.765 0,-2.712 0,-7.876 0,-10.588 z"
       style="fill:#b3b3b3"
       id="path16035" /></g><g
     transform="matrix(0.875,0,0,0.6,50,101.8)"
     id="g16041"><path
       d="m 408,249.5 c 0,-1.381 -0.768,-2.5 -1.714,-2.5 -3.076,0 -9.496,0 -12.572,0 -0.946,0 -1.714,1.119 -1.714,2.5 0,1.381 0.768,2.5 1.714,2.5 3.076,0 9.496,0 12.572,0 0.946,0 1.714,-1.119 1.714,-2.5 0,0 0,0 0,0 z"
       style="fill:#b3b3b3"
       id="path16039" /></g><g
     transform="matrix(0.909091,0,0,0.909091,35,25)"
     id="g16045"><path
       d="m 396,247.5 c 0,-3.036 2.464,-5.5 5.5,-5.5 3.036,0 5.5,2.464 5.5,5.5 h -11"
       style="fill:#b3b3b3"
       id="path16043" /></g><path
     d="m 399.003,244.083 c -2.512,0.42 -4.498,2.405 -4.92,4.917 H 394 c -1.105,0 -2,0.895 -2,2 v 1 c 0,0.511 0.192,0.977 0.507,1.331 -0.32,0.477 -0.507,1.051 -0.507,1.669 v 12 c 0,1.657 1.343,3 3,3 h 10 c 1.657,0 3,-1.343 3,-3 v -12 c 0,-0.618 -0.187,-1.192 -0.507,-1.669 0.315,-0.354 0.507,-0.82 0.507,-1.331 v -1 c 0,-1.105 -0.895,-2 -2,-2 h -0.083 c -0.422,-2.512 -2.408,-4.496 -4.92,-4.917 C 400.999,244.055 401,244.028 401,244 v -1 c 0,-0.552 -0.448,-1 -1,-1 -0.552,0 -1,0.448 -1,1 v 1 c 0,0.028 10e-4,0.055 0.003,0.083 z M 394,266 v 1 c 0,0.552 0.448,1 1,1 0,0 10,0 10,0 0.552,0 1,-0.448 1,-1 v -12 c 0,-0.552 -0.448,-1 -1,-1 0,0 -10,0 -10,0 -0.552,0 -1,0.448 -1,1 v 1 h 4 c 0.552,0 1,0.448 1,1 0,0.552 -0.448,1 -1,1 h -4 v 2 h 2 c 0.552,0 1,0.448 1,1 0,0.552 -0.448,1 -1,1 h -2 v 2 h 4 c 0.552,0 1,0.448 1,1 0,0.552 -0.448,1 -1,1 z m 0,-14 h 12 v -1 h -12 z m 9.874,-3 c -0.445,-1.724 -2.011,-3 -3.874,-3 -1.862,0 -3.429,1.276 -3.874,3 z"
     style="fill:#6699ff"
     id="path16047" /></g></g>
	</g>
</g>
</svg>
