<?xml version="1.0" encoding="UTF-8" standalone="no"?>
<!-- Uploaded to: SVG Repo, www.svgrepo.com, Generator: SVG Repo Mixer Tools -->

<svg
   fill="#000000"
   height="800"
   width="1600"
   version="1.1"
   id="Layer_1"
   viewBox="0 0 1024.026 512.013"
   xml:space="preserve"
   sodipodi:docname="pelele_yes.svg"
   inkscape:version="1.2.2 (732a01da63, 2022-12-09)"
   xmlns:inkscape="http://www.inkscape.org/namespaces/inkscape"
   xmlns:sodipodi="http://sodipodi.sourceforge.net/DTD/sodipodi-0.dtd"
   xmlns="http://www.w3.org/2000/svg"
   xmlns:svg="http://www.w3.org/2000/svg"><defs
   id="defs17843" /><sodipodi:namedview
   id="namedview17841"
   pagecolor="#ffffff"
   bordercolor="#000000"
   borderopacity="0.25"
   inkscape:showpageshadow="2"
   inkscape:pageopacity="0.0"
   inkscape:pagecheckerboard="0"
   inkscape:deskcolor="#d1d1d1"
   showgrid="false"
   inkscape:zoom="0.5"
   inkscape:cx="379"
   inkscape:cy="400"
   inkscape:window-width="1920"
   inkscape:window-height="1017"
   inkscape:window-x="-8"
   inkscape:window-y="-8"
   inkscape:window-maximized="1"
   inkscape:current-layer="g17834" />
<g
   id="g17838">
	<g
   id="g17836">
		<g
   id="g17834"
   style="fill:#008000">
			<g
   inkscape:groupmode="layer"
   id="layer1"
   inkscape:label="Layer 1"
   style="fill:#008000" /><path
   d="M 479.428,53.723 450.001,36.067 C 411.441,12.926 367.434,0.5 322.508,0.025 321.632,0.009 320.747,0 319.827,0 H 192.168 c -0.854,0 -1.689,0.008 -2.52,0.024 C 144.65,0.473 100.588,12.902 62.005,36.071 L 32.572,53.73 c -20.2,12.101 -32.565,33.939 -32.565,57.504 0,52.124 56.872,84.315 101.575,57.506 l 5.092,-3.056 v 280.035 c 0,31.9 22.211,60.352 53.405,65.43 39.431,6.388 74.595,-23.788 74.595,-63.147 v -83.051 c 0,-11.697 7.83,-21.728 17.593,-23.317 13.369,-2.166 25.074,7.879 25.074,21.034 v 83.051 c 0,31.909 22.197,60.355 53.408,65.43 39.415,6.417 74.592,-23.78 74.592,-63.147 V 165.685 l 5.087,3.052 c 44.708,26.812 101.58,-5.379 101.58,-57.503 -0.002,-23.565 -12.367,-45.403 -32.58,-57.511 z m -163.2,-11.054 c -8.769,24.887 -32.432,42.664 -60.23,42.664 -27.798,0 -51.461,-17.778 -60.23,-42.664 z m 116.148,89.48 -37.392,-22.439 c -14.219,-8.533 -32.311,1.709 -32.311,18.292 v 320 c 0,13.162 -11.706,23.211 -25.073,21.035 -9.775,-1.589 -17.593,-11.609 -17.593,-23.317 v -83.051 c 0,-39.359 -35.164,-69.535 -74.58,-63.149 -31.21,5.08 -53.42,33.532 -53.42,65.432 v 83.051 c 0,13.155 -11.705,23.2 -25.09,21.032 C 157.17,467.449 149.34,457.418 149.34,445.72 V 128.002 c 0,-16.583 -18.092,-26.825 -32.311,-18.292 l -37.397,22.443 c -16.264,9.754 -36.959,-1.961 -36.959,-20.918 0,-8.572 4.495,-16.511 11.838,-20.91 L 83.963,72.653 c 21.203,-12.732 44.394,-21.56 68.484,-26.193 11.289,46.832 53.375,81.54 103.551,81.54 50.176,0 92.262,-34.708 103.55,-81.541 24.088,4.633 47.285,13.461 68.499,26.193 l 29.442,17.665 c 7.355,4.406 11.851,12.345 11.851,20.917 0,18.958 -20.695,30.672 -36.964,20.915 z"
   id="path17830"
   style="fill:#008000" />
			<path
   d="m 320.002,149.335 h -128 c -11.782,0 -21.333,9.551 -21.333,21.333 v 85.333 c 0,11.782 9.551,21.333 21.333,21.333 h 128 c 11.782,0 21.333,-9.551 21.333,-21.333 v -85.333 c 0,-11.781 -9.551,-21.333 -21.333,-21.333 z m -21.333,85.334 h -85.333 v -42.667 h 85.333 z"
   id="path17832"
   style="fill:#008000" />
		</g>
	</g>
</g>
</svg>
