<?xml version="1.0" encoding="iso-8859-1"?>
<!-- Uploaded to: SVG Repo, www.svgrepo.com, Generator: SVG Repo Mixer Tools -->
<svg fill="#000000" height="800px" width="800px" version="1.1" id="Layer_1" xmlns="http://www.w3.org/2000/svg" xmlns:xlink="http://www.w3.org/1999/xlink" 
	 viewBox="0 0 512.013 512.013" xml:space="preserve">
<g>
	<g>
		<g>
			<path d="M479.428,53.723l-29.427-17.656C411.441,12.926,367.434,0.5,322.508,0.025C321.632,0.009,320.747,0,319.827,0H192.168
				c-0.854,0-1.689,0.008-2.52,0.024c-44.998,0.449-89.06,12.878-127.643,36.047L32.572,53.73
				c-20.2,12.101-32.565,33.939-32.565,57.504c0,52.124,56.872,84.315,101.575,57.506l5.092-3.056v280.035
				c0,31.9,22.211,60.352,53.405,65.43c39.431,6.388,74.595-23.788,74.595-63.147v-83.051c0-11.697,7.83-21.728,17.593-23.317
				c13.369-2.166,25.074,7.879,25.074,21.034v83.051c0,31.909,22.197,60.355,53.408,65.43c39.415,6.417,74.592-23.78,74.592-63.147
				V165.685l5.087,3.052c44.708,26.812,101.58-5.379,101.58-57.503C512.006,87.669,499.641,65.831,479.428,53.723z M316.228,42.669
				c-8.769,24.887-32.432,42.664-60.23,42.664c-27.798,0-51.461-17.778-60.23-42.664H316.228z M432.376,132.149l-37.392-22.439
				c-14.219-8.533-32.311,1.709-32.311,18.292v320c0,13.162-11.706,23.211-25.073,21.035c-9.775-1.589-17.593-11.609-17.593-23.317
				v-83.051c0-39.359-35.164-69.535-74.58-63.149c-31.21,5.08-53.42,33.532-53.42,65.432v83.051c0,13.155-11.705,23.2-25.09,21.032
				c-9.747-1.586-17.577-11.617-17.577-23.315V128.002c0-16.583-18.092-26.825-32.311-18.292l-37.397,22.443
				c-16.264,9.754-36.959-1.961-36.959-20.918c0-8.572,4.495-16.511,11.838-20.91l29.452-17.672
				c21.203-12.732,44.394-21.56,68.484-26.193C163.736,93.292,205.822,128,255.998,128c50.176,0,92.262-34.708,103.55-81.541
				c24.088,4.633,47.285,13.461,68.499,26.193l29.442,17.665c7.355,4.406,11.851,12.345,11.851,20.917
				C469.34,130.192,448.645,141.906,432.376,132.149z"/>
			<path d="M320.002,149.335h-128c-11.782,0-21.333,9.551-21.333,21.333v85.333c0,11.782,9.551,21.333,21.333,21.333h128
				c11.782,0,21.333-9.551,21.333-21.333v-85.333C341.335,158.887,331.784,149.335,320.002,149.335z M298.669,234.669h-85.333
				v-42.667h85.333V234.669z"/>
		</g>
	</g>
</g>
</svg>